<svg width="30" height="30" viewBox="0 0 30 30" fill="none" xmlns="http://www.w3.org/2000/svg">
<path d="M15 2.5C12.5277 2.5 10.111 3.23311 8.05537 4.60663C5.99976 5.98015 4.3976 7.93238 3.4515 10.2165C2.50541 12.5005 2.25787 15.0139 2.74018 17.4386C3.2225 19.8634 4.41301 22.0907 6.16116 23.8388C7.90932 25.587 10.1366 26.7775 12.5614 27.2598C14.9861 27.7421 17.4995 27.4946 19.7835 26.5485C22.0676 25.6024 24.0198 24.0002 25.3934 21.9446C26.7669 19.889 27.5 17.4723 27.5 15C27.5 13.3585 27.1767 11.733 26.5485 10.2165C25.9203 8.69989 24.9996 7.3219 23.8388 6.16117C22.6781 5.00043 21.3001 4.07969 19.7835 3.45151C18.267 2.82332 16.6415 2.5 15 2.5ZM20.8875 12.1375L13.3875 19.6375C13.2713 19.7547 13.133 19.8477 12.9807 19.9111C12.8284 19.9746 12.665 20.0072 12.5 20.0072C12.335 20.0072 12.1716 19.9746 12.0193 19.9111C11.867 19.8477 11.7287 19.7547 11.6125 19.6375L9.1125 17.1375C8.99595 17.021 8.9035 16.8826 8.84042 16.7303C8.77735 16.578 8.74488 16.4148 8.74488 16.25C8.74488 16.0852 8.77735 15.922 8.84042 15.7697C8.9035 15.6174 8.99595 15.479 9.1125 15.3625C9.22905 15.246 9.36741 15.1535 9.51969 15.0904C9.67196 15.0273 9.83517 14.9949 10 14.9949C10.1648 14.9949 10.328 15.0273 10.4803 15.0904C10.6326 15.1535 10.7709 15.246 10.8875 15.3625L12.5 16.9875L19.1125 10.3625C19.3479 10.1271 19.6671 9.99489 20 9.99489C20.3329 9.99489 20.6521 10.1271 20.8875 10.3625C21.1229 10.5979 21.2551 10.9171 21.2551 11.25C21.2551 11.5829 21.1229 11.9021 20.8875 12.1375Z" fill="#CED1E6"/>
</svg>
